<?xml version="1.0" encoding="utf-8"?>
<!-- Generator: Adobe Illustrator 16.0.0, SVG Export Plug-In . SVG Version: 6.00 Build 0)  -->
<!DOCTYPE svg PUBLIC "-//W3C//DTD SVG 1.1//EN" "http://www.w3.org/Graphics/SVG/1.1/DTD/svg11.dtd">
<svg version="1.1" id="Layer_1" xmlns="http://www.w3.org/2000/svg" xmlns:xlink="http://www.w3.org/1999/xlink" x="0px" y="0px"
	 width="405.441px" height="96.242px" viewBox="0 0 405.441 96.242" enable-background="new 0 0 405.441 96.242"
	 xml:space="preserve">
<g enable-background="new    ">
	<path fill="#FFFFFF" d="M0,94.602V13.514h13.515v13.515h40.544V13.514h13.515v81.088H54.059V40.543H13.515v54.059H0z
		 M13.515,13.514V0h40.544v13.515H13.515z"/>
	<path fill="#FFFFFF" d="M81.088,94.602V0h54.059v13.515H94.603v13.515h40.544v13.515H94.603v40.544h40.544v13.515H81.088z
		 M135.146,27.029V13.514h13.515v13.515H135.146z M135.146,81.087V40.543h13.515v40.544H135.146z"/>
	<path fill="#FFFFFF" d="M162.176,81.087V13.514h13.515v67.573H162.176z M175.69,13.514V0h40.543v13.515H175.69z M175.69,94.602
		V81.087h40.543v13.515H175.69z M216.234,81.087V13.514h13.516v67.573H216.234z"/>
	<path fill="#FFFFFF" d="M243.263,81.087V0h13.516v81.088H243.263z M256.779,94.602V81.087h40.543v13.515H256.779z M297.322,81.087
		V0h13.516v81.088H297.322z"/>
	<path fill="#FFFFFF" d="M351.38,94.602V13.514h-27.029V0h67.574v13.515h-27.029v81.088H351.38z"/>
</g>
</svg>
