<?xml version="1.0" encoding="utf-8"?>
<!-- Generator: Adobe Illustrator 16.0.0, SVG Export Plug-In . SVG Version: 6.00 Build 0)  -->
<!DOCTYPE svg PUBLIC "-//W3C//DTD SVG 1.1//EN" "http://www.w3.org/Graphics/SVG/1.1/DTD/svg11.dtd">
<svg version="1.1" id="Layer_1" xmlns="http://www.w3.org/2000/svg" xmlns:xlink="http://www.w3.org/1999/xlink" x="0px" y="0px"
	 width="567.614px" height="98.439px" viewBox="0 0 567.614 98.439" enable-background="new 0 0 567.614 98.439"
	 xml:space="preserve">
<g enable-background="new    ">
	<path fill="#FFFFFF" d="M0,81.088V13.514h13.515v67.573H0z M13.515,13.514V0h40.544v13.515H13.515z M13.515,94.602V81.088h40.544
		v13.515H13.515z M54.059,27.029V13.514h13.515v13.515H54.059z M54.059,81.088V67.573h13.515v13.515H54.059z"/>
	<path fill="#FFFFFF" d="M81.088,81.088V13.514h13.515v67.573H81.088z M94.603,13.514V0h40.544v13.515H94.603z M94.603,94.602
		V81.088h40.544v13.515H94.603z M135.146,81.088V13.514h13.515v67.573H135.146z"/>
	<path fill="#FFFFFF" d="M162.176,94.602V0h13.515v13.515h13.515v13.515H175.69v67.573H162.176z M189.205,40.544V27.029h13.515
		v13.515H189.205z M216.234,94.602V54.058H202.72V40.544h13.515V0h13.515v94.603H216.234z"/>
	<path fill="#FFFFFF" d="M270.293,94.602V13.514h-27.029V0h67.573v13.515h-27.029v81.088H270.293z"/>
	<path fill="#FFFFFF" d="M324.352,94.602V13.514h13.514v13.515h40.545V13.514h13.514v81.088h-13.514V40.544h-40.545v54.059H324.352z
		 M337.866,13.514V0h40.545v13.515H337.866z"/>
	<path fill="#FFFFFF" d="M405.44,81.088V13.514h13.514v67.573H405.44z M418.954,13.514V0h40.545v13.515H418.954z M418.954,94.602
		V81.088h40.545v13.515H418.954z M459.499,27.029V13.514h13.514v13.515H459.499z M459.499,81.088V67.573h13.514v13.515H459.499z"/>
	<path fill="#FFFFFF" d="M513.557,94.602V13.514h-27.029V0H554.1v13.515h-27.029v81.088H513.557z"/>
</g>
</svg>
