<?xml version="1.0" encoding="utf-8"?>
<!-- Generator: Adobe Illustrator 16.0.0, SVG Export Plug-In . SVG Version: 6.00 Build 0)  -->
<!DOCTYPE svg PUBLIC "-//W3C//DTD SVG 1.1//EN" "http://www.w3.org/Graphics/SVG/1.1/DTD/svg11.dtd">
<svg version="1.1" id="jpeg" xmlns="http://www.w3.org/2000/svg" xmlns:xlink="http://www.w3.org/1999/xlink" x="0px" y="0px"
	 width="245.66px" height="314.41px" viewBox="0 0 245.66 314.41" enable-background="new 0 0 245.66 314.41" xml:space="preserve">
<g>
	<g id="fill">
		<polygon fill="#FFFFFF" points="196.436,196.43 186.646,196.43 176.855,196.43 176.855,206.22 176.855,216 186.646,216 
			196.436,216 196.436,206.22 		"/>
		<polygon fill="#FFFFFF" points="98.195,196.43 88.405,196.43 78.625,196.43 78.625,206.22 78.625,216 88.405,216 98.195,216 
			98.195,206.22 		"/>
		<polygon fill="#FFFFFF" points="19.655,88.28 29.445,88.28 39.225,88.28 49.135,88.28 58.925,88.28 68.715,88.28 78.625,88.28 
			88.405,88.28 88.405,78.49 88.405,68.58 88.405,58.8 88.405,49.01 88.405,39.22 88.405,29.31 88.405,19.53 88.405,9.74 
			78.625,9.74 78.625,19.53 68.715,19.53 68.715,29.31 58.925,29.31 58.925,39.22 49.135,39.22 49.135,49.01 39.225,49.01 
			39.225,58.8 29.445,58.8 29.445,68.58 19.655,68.58 19.655,78.49 9.745,78.49 9.745,88.28 		"/>
		<polygon fill="#FFFFFF" points="137.465,206.22 147.375,206.22 147.375,196.43 137.465,196.43 127.675,196.43 127.675,206.22 		
			"/>
		<path fill="#FFFFFF" d="M206.345,9.74h-9.91h-9.79h-9.79h-9.91h-9.78h-9.79h-9.91h-9.79h-9.78h-9.91v9.79v9.78v9.91v9.79v9.79
			v9.78v9.91v9.79v9.79v9.91h-9.79h-9.79h-9.78h-9.91h-9.79h-9.79h-9.91h-9.78h-9.79h-9.91v9.79v9.78v9.91v9.79v9.79v9.9v9.79v9.79
			v9.91v9.79V216v9.79v9.91v9.79v9.78v9.91v9.79v9.79v9.91h9.91h9.79h9.78h9.91h9.79h9.79h9.91h9.78h9.79h9.79h9.91h9.78h9.79h9.91
			h9.79h9.78h9.91h9.79h9.79h9.91h9.78h9.79v-9.91v-9.79v-9.79v-9.91v-9.78v-9.79v-9.91V216v-9.78v-9.79v-9.91v-9.79v-9.79v-9.9
			v-9.79v-9.79v-9.91v-9.78v-9.79v-9.91v-9.79v-9.79v-9.91V58.8v-9.79v-9.79v-9.91v-9.78V9.74h-9.79H206.345z M19.655,206.22h9.79
			V216h-9.79V206.22z M58.925,196.43v9.79V216v9.79v9.91h-9.79v9.79h-9.91h-9.78v-9.79h-9.79v-9.91h9.79v9.91h9.78h9.91v-9.91V216
			v-9.78v-9.79v-9.91h9.79V196.43z M107.985,206.22V216h-9.79v9.79h-9.79h-9.78v9.91v9.79h-9.91v-9.79v-9.91V216v-9.78v-9.79h9.91
			v-9.91h9.78h9.79v9.91h9.79V206.22z M157.166,206.22V216h-9.79h-9.91h-9.79v9.79h9.79h9.91v9.91h-9.91h-9.79v-9.91h-9.78V216
			v-9.78v-9.79h9.78v-9.91h9.79h9.91v9.91h9.79V206.22z M216.125,196.43h-9.78v9.79V216h-9.91v9.79h9.91v9.91h-9.91v9.79h-9.79
			h-9.79v-9.79h9.79h9.79v-9.91h-9.79h-9.79V216h-9.91v-9.78v-9.79h9.91v-9.91h9.79h9.79v9.91h9.91v-9.91h9.78V196.43z"/>
	</g>
	<g id="outline">
		<path d="M235.87,9.91V0h-9.909h-9.791h-9.779h-9.91h-9.79h-9.79h-9.91h-9.779h-9.791h-9.91h-9.789h-9.78h-9.91h-9.79h-9.79h-9.78
			v9.91h9.78v9.79v9.78v9.91v9.79v9.79v9.78v9.91v9.79h-9.78h-9.91h-9.789H49.18h-9.91H29.49H19.7H9.79v-9.79H0v9.79v9.79v9.91v9.79
			v9.78v9.91v9.79v9.79v9.9v9.79v9.79v9.91v9.79v9.78v9.79v9.91v9.79v9.78v9.91v9.79v9.79v9.91v9.78h9.79v9.79h9.91h9.79h9.779h9.91
			h9.791h9.789h9.91h9.78h9.79h9.79h9.91h9.78h9.789h9.91h9.791h9.779h9.91h9.79h9.79h9.91h9.779h9.791h9.909h9.79v-9.79v-9.78
			v-9.91v-9.79v-9.79v-9.91v-9.78v-9.79v-9.91v-9.79v-9.78v-9.79v-9.91v-9.79v-9.79v-9.9v-9.79v-9.79v-9.91v-9.78v-9.79v-9.91v-9.79
			v-9.79v-9.91v-9.78v-9.79v-9.79v-9.91V19.7V9.91H235.87z M225.961,19.7v9.78v9.91v9.79v9.79v9.78v9.91v9.79v9.79v9.91v9.79v9.78
			v9.91v9.79v9.79v9.9v9.79v9.79v9.91v9.79v9.78v9.79v9.91v9.79v9.78v9.91v9.79v9.79v9.91h-9.791h-9.779h-9.91h-9.79h-9.79h-9.91
			h-9.779h-9.791h-9.91h-9.789h-9.78h-9.91h-9.79h-9.79h-9.78h-9.91h-9.789H49.18h-9.91H29.49H19.7H9.79v-9.91v-9.79v-9.79v-9.91
			v-9.78v-9.79v-9.91v-9.79v-9.78v-9.79v-9.91v-9.79v-9.79v-9.9v-9.79v-9.79v-9.91v-9.78v-9.79h9.91h9.79h9.779h9.91h9.791h9.789
			h9.91h9.78h9.79h9.79v-9.91v-9.79v-9.79v-9.91v-9.78v-9.79v-9.79v-9.91V19.7V9.91h9.91h9.78h9.789h9.91h9.791h9.779h9.91h9.79
			h9.79h9.91h9.779h9.791V19.7z"/>
		<rect x="206.391" y="186.69" width="9.779" height="9.91"/>
		<rect x="196.48" y="225.96" width="9.91" height="9.91"/>
		<polygon points="196.48,206.39 196.48,216.17 206.391,216.17 206.391,206.39 206.391,196.6 196.48,196.6 		"/>
		<polygon points="196.48,196.6 196.48,186.69 186.69,186.69 176.9,186.69 176.9,196.6 186.69,196.6 		"/>
		<polygon points="176.9,235.87 176.9,245.66 186.69,245.66 196.48,245.66 196.48,235.87 186.69,235.87 		"/>
		<polygon points="176.9,216.17 176.9,225.96 186.69,225.96 196.48,225.96 196.48,216.17 186.69,216.17 		"/>
		<polygon points="176.9,196.6 166.99,196.6 166.99,206.39 166.99,216.17 176.9,216.17 176.9,206.39 		"/>
		<polygon points="147.42,196.6 147.42,186.69 137.51,186.69 127.721,186.69 127.721,196.6 137.51,196.6 		"/>
		<polygon points="137.51,235.87 147.42,235.87 147.42,225.96 137.51,225.96 127.721,225.96 127.721,235.87 		"/>
		<polygon points="147.42,206.39 137.51,206.39 127.721,206.39 127.721,196.6 117.94,196.6 117.94,206.39 117.94,216.17 
			117.94,225.96 127.721,225.96 127.721,216.17 137.51,216.17 147.42,216.17 157.211,216.17 157.211,206.39 157.211,196.6 
			147.42,196.6 		"/>
		<polygon points="98.24,206.39 98.24,216.17 108.03,216.17 108.03,206.39 108.03,196.6 98.24,196.6 		"/>
		<polygon points="98.24,196.6 98.24,186.69 88.45,186.69 78.67,186.69 78.67,196.6 88.45,196.6 		"/>
		<polygon points="78.67,216.17 78.67,206.39 78.67,196.6 68.76,196.6 68.76,206.39 68.76,216.17 68.76,225.96 68.76,235.87 
			68.76,245.66 78.67,245.66 78.67,235.87 78.67,225.96 88.45,225.96 98.24,225.96 98.24,216.17 88.45,216.17 		"/>
		<rect x="68.76" y="9.91" width="9.91" height="9.79"/>
		<rect x="58.971" y="19.7" width="9.789" height="9.78"/>
		<polygon points="49.18,196.6 49.18,206.39 49.18,216.17 49.18,225.96 49.18,235.87 58.971,235.87 58.971,225.96 58.971,216.17 
			58.971,206.39 58.971,196.6 58.971,186.69 49.18,186.69 		"/>
		<rect x="49.18" y="29.48" width="9.791" height="9.91"/>
		<rect x="39.27" y="39.39" width="9.91" height="9.79"/>
		<polygon points="29.49,235.87 29.49,245.66 39.27,245.66 49.18,245.66 49.18,235.87 39.27,235.87 		"/>
		<rect x="29.49" y="49.18" width="9.779" height="9.79"/>
		<rect x="19.7" y="225.96" width="9.79" height="9.91"/>
		<rect x="19.7" y="206.39" width="9.79" height="9.78"/>
		<rect x="19.7" y="58.97" width="9.79" height="9.78"/>
		<rect x="9.79" y="68.75" width="9.91" height="9.91"/>
	</g>
</g>
</svg>
