<?xml version="1.0" encoding="utf-8"?>
<!-- Generator: Adobe Illustrator 16.0.0, SVG Export Plug-In . SVG Version: 6.00 Build 0)  -->
<!DOCTYPE svg PUBLIC "-//W3C//DTD SVG 1.1//EN" "http://www.w3.org/Graphics/SVG/1.1/DTD/svg11.dtd">
<svg version="1.1" id="Layer_1" xmlns="http://www.w3.org/2000/svg" xmlns:xlink="http://www.w3.org/1999/xlink" x="0px" y="0px"
	 width="324.352px" height="97.34px" viewBox="0 0 324.352 97.34" enable-background="new 0 0 324.352 97.34" xml:space="preserve">
<g enable-background="new    ">
	<path d="M0,94.603V0h13.515v67.573h13.515v13.515H13.515v13.515H0z M27.029,67.573V54.059h13.515v13.515H27.029z M54.059,94.603
		V81.088H40.544V67.573h13.515V0h13.515v94.603H54.059z"/>
	<path d="M81.088,81.088V13.515h13.515v67.573H81.088z M94.603,13.515V0h40.544v13.515H94.603z M94.603,94.603V81.088h40.544v13.515
		H94.603z M135.146,81.088V13.515h13.515v67.573H135.146z"/>
	<path d="M162.176,94.603V0h54.059v13.515H175.69v13.515h40.544v13.515H175.69v54.059H162.176z M216.234,27.029V13.515h13.515
		v13.515H216.234z M216.234,94.603V40.544h13.515v54.059H216.234z"/>
	<path d="M243.264,94.603V0h13.515v27.029h27.029v13.515h-27.029v54.059H243.264z M283.808,27.029V13.515h13.515v13.515H283.808z
		 M283.808,54.059V40.544h13.515v13.515H283.808z M297.322,13.515V0h13.515v13.515H297.322z M297.322,94.603V54.059h13.515v40.544
		H297.322z"/>
</g>
</svg>
